<svg width="33" height="33" viewBox="0 0 33 33" fill="none" xmlns="http://www.w3.org/2000/svg">
<circle cx="16.5" cy="16.5" r="16.5" fill="#3C9AFB"/>
<path d="M9.53041 23.9676C8.25991 23.9676 7.19552 23.5384 6.33723 22.6801C5.47895 21.8219 5.0498 20.7575 5.0498 19.487C5.0498 18.2424 5.48724 17.178 6.36212 16.2938C7.237 15.4096 8.2931 14.9679 9.53041 14.9685C10.6681 14.9685 11.6628 15.3535 12.5145 16.1235C13.3668 16.8929 13.858 17.8481 13.9881 18.9891H15.7455L13.6088 13.015H12.0196V12.0193H16.0024V13.015H14.6781L15.3711 14.9685H21.2606L19.5869 10.3724C19.5484 10.2576 19.4846 10.1713 19.3957 10.1135C19.3061 10.0565 19.2039 10.0279 19.089 10.0279H16.9981V9.03223H19.089C19.4057 9.03223 19.6957 9.11985 19.9593 9.29509C20.2228 9.46967 20.4103 9.71129 20.5218 10.02L22.329 14.9566H23.4701C24.7074 14.9566 25.7635 15.394 26.6383 16.2689C27.5132 17.1438 27.9507 18.1999 27.9507 19.4372C27.9507 20.6785 27.5142 21.7372 26.6413 22.6134C25.7678 23.491 24.7107 23.9297 23.4701 23.9297C22.3263 23.9297 21.3373 23.553 20.5029 22.7996C19.6685 22.0462 19.1717 21.108 19.0124 19.9848H13.9881C13.858 21.1299 13.3608 22.0801 12.4966 22.8355C11.6323 23.5909 10.6436 23.9682 9.53041 23.9676ZM9.53041 22.9719C10.3641 22.9719 11.0993 22.7087 11.7359 22.1823C12.3718 21.6552 12.783 20.9228 12.9695 19.9848H10.0283V18.9891H12.9695C12.783 18.0465 12.3714 17.313 11.7349 16.7886C11.099 16.2643 10.3641 16.0021 9.53041 16.0021C8.54335 16.0021 7.71593 16.3363 7.04815 17.0047C6.38038 17.6732 6.04616 18.5006 6.04549 19.487C6.04549 20.4442 6.37971 21.2643 7.04815 21.9473C7.71659 22.6304 8.54401 22.9719 9.53041 22.9719ZM16.8527 18.9891H19.0124C19.0701 18.5311 19.2394 17.9924 19.5202 17.3731C19.8023 16.7538 20.2125 16.2838 20.7508 15.9632H15.7226L16.8527 18.9891ZM23.4701 22.9719C24.4571 22.9719 25.2845 22.6304 25.9523 21.9473C26.6208 21.2643 26.955 20.4442 26.955 19.487C26.955 18.4999 26.6208 17.6725 25.9523 17.0047C25.2839 16.3369 24.4565 16.0027 23.4701 16.0021C23.322 16.0021 23.184 16.0054 23.0559 16.012C22.9277 16.0186 22.803 16.0409 22.6815 16.0787L23.715 18.8318L22.781 19.1843L21.7963 16.4312C21.2221 16.7518 20.7767 17.1922 20.4601 17.7525C20.1435 18.3127 19.9851 18.8909 19.9851 19.487C19.9851 20.4442 20.3194 21.2643 20.9878 21.9473C21.6562 22.6304 22.4837 22.9719 23.4701 22.9719Z" fill="white"/>
</svg>
